<?xml version="1.0" encoding="utf-8"?>
<!-- Generator: Adobe Illustrator 16.0.0, SVG Export Plug-In . SVG Version: 6.00 Build 0)  -->
<!DOCTYPE svg PUBLIC "-//W3C//DTD SVG 1.1//EN" "http://www.w3.org/Graphics/SVG/1.1/DTD/svg11.dtd">
<svg version="1.1" id="图层_1" xmlns="http://www.w3.org/2000/svg" xmlns:xlink="http://www.w3.org/1999/xlink" x="0px" y="0px"
	 width="512px" height="512px" viewBox="0 0 512 512" enable-background="new 0 0 512 512" xml:space="preserve">
<path fill="#70B0DE" d="M511.796,459.304c0,28.991-23.501,52.492-52.492,52.492H52.498C23.506,511.796,0,488.295,0,459.304V52.498
	C0,23.506,23.506,0,52.498,0h406.806c28.991,0,52.492,23.506,52.492,52.498V459.304L511.796,459.304z"/>
<g>
	<g opacity="0.3">
		<polygon fill="#3A6F8F" points="403.661,205.581 403.661,349.487 129.658,349.487 129.658,223.174 172.892,264.199 
			226.319,237.223 268.228,243.659 306.158,197.662 353.321,184.264 		"/>
		<rect x="105.758" y="152.631" fill="#3A6F8F" width="4.5" height="218.488"/>
		<rect x="105.758" y="368.869" fill="#3A6F8F" width="313.484" height="4.5"/>
	</g>
	<g>
		<polygon fill="#FFFFFF" points="390.661,191.581 390.661,335.487 116.658,335.487 116.658,209.174 159.892,250.199 
			213.319,223.223 255.228,229.659 293.158,183.662 340.321,170.264 		"/>
		<rect x="92.758" y="138.631" fill="#FFFFFF" width="4.5" height="218.488"/>
		<rect x="92.758" y="354.869" fill="#FFFFFF" width="313.484" height="4.5"/>
	</g>
</g>
</svg>
