<?xml version="1.0" encoding="utf-8"?>
<!-- Generator: Adobe Illustrator 16.0.0, SVG Export Plug-In . SVG Version: 6.00 Build 0)  -->
<!DOCTYPE svg PUBLIC "-//W3C//DTD SVG 1.1//EN" "http://www.w3.org/Graphics/SVG/1.1/DTD/svg11.dtd">
<svg version="1.1" id="图层_1" xmlns="http://www.w3.org/2000/svg" xmlns:xlink="http://www.w3.org/1999/xlink" x="0px" y="0px"
	 width="512px" height="512px" viewBox="0 0 512 512" enable-background="new 0 0 512 512" xml:space="preserve">
<g>
	<g>
		<rect x="27.495" y="110.188" fill="#E2DBD7" width="0.599" height="291.625"/>
	</g>
	<g>
		<rect x="70.077" y="110.188" fill="#E2DBD7" width="0.6" height="291.625"/>
	</g>
	<g>
		<rect x="112.654" y="110.188" fill="#E2DBD7" width="0.599" height="291.625"/>
	</g>
	<g>
		<rect x="155.236" y="110.188" fill="#E2DBD7" width="0.6" height="291.625"/>
	</g>
	<g>
		<rect x="197.819" y="110.188" fill="#E2DBD7" width="0.599" height="291.625"/>
	</g>
	<g>
		<rect x="240.399" y="110.188" fill="#E2DBD7" width="0.598" height="291.625"/>
	</g>
	<g>
		<rect x="282.982" y="110.188" fill="#E2DBD7" width="0.597" height="291.625"/>
	</g>
	<g>
		<rect x="325.562" y="110.188" fill="#E2DBD7" width="0.6" height="291.625"/>
	</g>
	<g>
		<rect x="368.142" y="110.188" fill="#E2DBD7" width="0.602" height="291.625"/>
	</g>
	<g>
		<rect x="410.722" y="110.188" fill="#E2DBD7" width="0.601" height="291.625"/>
	</g>
	<g>
		<rect x="453.306" y="110.188" fill="#E2DBD7" width="0.599" height="291.625"/>
	</g>
	<g>
		<rect x="495.884" y="110.188" fill="#E2DBD7" width="0.599" height="291.625"/>
	</g>
	<g>
		<rect x="15.518" y="384.178" fill="#E2DBD7" width="12.277" height="0.897"/>
	</g>
	<g>
		<rect x="15.518" y="348.909" fill="#E2DBD7" width="12.277" height="0.898"/>
	</g>
	<g>
		<rect x="15.518" y="313.641" fill="#E2DBD7" width="12.277" height="0.896"/>
	</g>
	<g>
		<rect x="15.518" y="278.375" fill="#E2DBD7" width="12.277" height="0.898"/>
	</g>
	<g>
		<rect x="15.518" y="243.106" fill="#E2DBD7" width="12.277" height="0.897"/>
	</g>
	<g>
		<rect x="15.518" y="207.837" fill="#E2DBD7" width="12.277" height="0.897"/>
	</g>
	<g>
		<rect x="15.518" y="172.572" fill="#E2DBD7" width="12.277" height="0.897"/>
	</g>
	<g>
		<rect x="15.518" y="137.302" fill="#E2DBD7" width="12.277" height="0.899"/>
	</g>
	<polygon fill="#008A53" points="28.741,379.002 70.377,298.51 112.955,267.091 155.536,204.252 198.118,206.978 240.698,169.244 
		283.28,191.686 325.862,178.221 368.442,211.733 410.924,211.434 453.32,280.854 496.182,250.034 496.182,384.627 28.741,384.627 	
		"/>
	<polygon fill="#F6A14D" points="27.795,383.609 70.377,329.031 112.955,274.121 155.536,256 198.118,268.588 240.698,202.907 
		283.28,205.6 325.862,250.783 368.442,231.931 411.022,309.279 453.604,294.915 496.182,325.142 496.182,384.627 28.139,384.627 	
		"/>
	<polygon fill="#E35040" points="28.253,383.861 70.377,348.629 112.955,302.848 155.536,284.746 198.118,272.179 240.698,282.801 
		283.28,245.697 325.862,257.514 368.442,318.558 411.022,332.92 453.604,349.975 496.182,379.002 496.182,384.627 28.477,384.627 	
		"/>
</g>
</svg>
