<?xml version="1.0" encoding="utf-8"?>
<!-- Generator: Adobe Illustrator 16.0.0, SVG Export Plug-In . SVG Version: 6.00 Build 0)  -->
<!DOCTYPE svg PUBLIC "-//W3C//DTD SVG 1.1//EN" "http://www.w3.org/Graphics/SVG/1.1/DTD/svg11.dtd">
<svg version="1.1" id="图层_1" xmlns="http://www.w3.org/2000/svg" xmlns:xlink="http://www.w3.org/1999/xlink" x="0px" y="0px"
	 width="512px" height="512px" viewBox="0 0 512 512" enable-background="new 0 0 512 512" xml:space="preserve">
<path fill="#70B0DE" d="M511.796,459.304c0,28.991-23.501,52.492-52.492,52.492H52.498C23.506,511.796,0,488.295,0,459.304V52.498
	C0,23.506,23.506,0,52.498,0h406.806c28.991,0,52.492,23.506,52.492,52.498V459.304L511.796,459.304z"/>
<g opacity="0.3">
	<rect x="129.751" y="293.498" fill="#3A6F8F" width="34.499" height="103.495"/>
	<rect x="184.251" y="256" fill="#3A6F8F" width="34.499" height="140.993"/>
	<rect x="238.751" y="215.502" fill="#3A6F8F" width="34.499" height="181.491"/>
	<rect x="293.251" y="170.504" fill="#3A6F8F" width="34.498" height="226.489"/>
	<rect x="347.751" y="115.007" fill="#3A6F8F" width="34.498" height="281.986"/>
</g>
<g>
	<rect x="120.751" y="285.498" fill="#FFFFFF" width="34.499" height="103.495"/>
	<rect x="175.251" y="248" fill="#FFFFFF" width="34.499" height="140.993"/>
	<rect x="229.751" y="207.502" fill="#FFFFFF" width="34.499" height="181.491"/>
	<rect x="284.251" y="162.504" fill="#FFFFFF" width="34.498" height="226.489"/>
	<rect x="338.751" y="107.007" fill="#FFFFFF" width="34.498" height="281.986"/>
</g>
</svg>
