<?xml version="1.0" encoding="utf-8"?>
<!-- Generator: Adobe Illustrator 16.0.0, SVG Export Plug-In . SVG Version: 6.00 Build 0)  -->
<!DOCTYPE svg PUBLIC "-//W3C//DTD SVG 1.1//EN" "http://www.w3.org/Graphics/SVG/1.1/DTD/svg11.dtd">
<svg version="1.1" id="图层_1" xmlns="http://www.w3.org/2000/svg" xmlns:xlink="http://www.w3.org/1999/xlink" x="0px" y="0px"
	 width="512px" height="512px" viewBox="0 0 512 512" enable-background="new 0 0 512 512" xml:space="preserve">
<path fill="#70B0DE" d="M511.898,459.406c0,28.99-23.502,52.492-52.492,52.492H52.6c-28.992,0-52.498-23.502-52.498-52.492V52.6
	c0-28.992,23.506-52.498,52.498-52.498h406.806c28.99,0,52.492,23.506,52.492,52.498V459.406L511.898,459.406z"/>
<g>
	<g opacity="0.5">
		<path fill-rule="evenodd" clip-rule="evenodd" fill="#3A6F8F" d="M263.189,355.236l-0.15,37.102
			c45.285-0.008,84.851-24.621,106.036-61.201l-32.221-18.42c-14.55,25.412-41.928,42.527-73.294,42.527
			C263.434,355.244,263.316,355.236,263.189,355.236z"/>
		<path fill-rule="evenodd" clip-rule="evenodd" fill="#3A6F8F" d="M259.96,392.338l-0.149-37.109
			c-31.265-0.268-58.453-17.535-72.821-42.992l-33.065,18.9C175.11,367.717,214.667,392.33,259.96,392.338z"/>
		<path fill-rule="evenodd" clip-rule="evenodd" fill="#3A6F8F" d="M151.885,329.082l32.923-19.186
			c-6.793-12.166-10.664-26.162-10.664-41.068c0-15.505,4.194-30.031,11.485-42.512l-33.744-19.684
			c-10.418,18.018-16.375,38.926-16.375,61.225C135.511,290.156,141.467,311.064,151.885,329.082z"/>
		<path fill-rule="evenodd" clip-rule="evenodd" fill="#3A6F8F" d="M152.925,203.577l33.918,19.384
			c14.566-24.66,41.312-41.263,71.952-41.531l0.165-39.062C213.667,142.384,174.11,166.997,152.925,203.577z"/>
		<path fill-rule="evenodd" clip-rule="evenodd" fill="#3A6F8F" d="M269.529,129.662l0.166,39.037c0.118,0,0.229,0,0.355,0
			c30.759,0,57.693,16.477,72.44,41.074l33.073-18.91C354.38,154.291,314.821,129.669,269.529,129.662z"/>
		<path fill-rule="evenodd" clip-rule="evenodd" fill="#3A6F8F" d="M371.106,205.632l-32.915,19.186
			c7.488,12.592,11.778,27.3,11.778,43.01c0,15.111-3.967,29.281-10.925,41.557l32.062,18.697
			c10.419-18.018,16.383-38.926,16.383-61.225C387.489,244.558,381.525,223.65,371.106,205.632z"/>
	</g>
	<g>
		<path fill-rule="evenodd" clip-rule="evenodd" fill="#FFFFFF" d="M252.189,345.236l-0.149,37.102
			c45.285-0.008,84.85-24.621,106.036-61.201l-32.221-18.42c-14.55,25.412-41.928,42.527-73.294,42.527
			C252.434,345.244,252.316,345.236,252.189,345.236z"/>
		<path fill-rule="evenodd" clip-rule="evenodd" fill="#FFFFFF" d="M248.96,382.338l-0.149-37.109
			c-31.265-0.268-58.453-17.535-72.821-42.992l-33.065,18.9C164.11,357.717,203.667,382.33,248.96,382.338z"/>
		<path fill-rule="evenodd" clip-rule="evenodd" fill="#FFFFFF" d="M140.885,319.082l32.923-19.186
			c-6.793-12.166-10.664-26.162-10.664-41.068c0-15.505,4.194-30.031,11.485-42.512l-33.744-19.684
			c-10.418,18.018-16.375,38.926-16.375,61.225C124.511,280.156,130.467,301.064,140.885,319.082z"/>
		<path fill-rule="evenodd" clip-rule="evenodd" fill="#FFFFFF" d="M141.925,193.577l33.918,19.384
			c14.566-24.66,41.312-41.263,71.952-41.531l0.166-39.062C202.667,132.384,163.11,156.997,141.925,193.577z"/>
		<path fill-rule="evenodd" clip-rule="evenodd" fill="#FFFFFF" d="M258.529,119.662l0.166,39.037c0.118,0,0.229,0,0.355,0
			c30.759,0,57.693,16.477,72.44,41.074l33.073-18.91C343.38,144.291,303.821,119.669,258.529,119.662z"/>
		<path fill-rule="evenodd" clip-rule="evenodd" fill="#FFFFFF" d="M360.106,195.632l-32.915,19.186
			c7.488,12.592,11.778,27.3,11.778,43.01c0,15.111-3.967,29.281-10.925,41.557l32.062,18.697
			c10.419-18.018,16.383-38.926,16.383-61.225C376.489,234.558,370.525,213.65,360.106,195.632z"/>
	</g>
</g>
</svg>
