<?xml version="1.0" encoding="utf-8"?>
<!-- Generator: Adobe Illustrator 16.0.0, SVG Export Plug-In . SVG Version: 6.00 Build 0)  -->
<!DOCTYPE svg PUBLIC "-//W3C//DTD SVG 1.1//EN" "http://www.w3.org/Graphics/SVG/1.1/DTD/svg11.dtd">
<svg version="1.1" id="图层_1" xmlns="http://www.w3.org/2000/svg" xmlns:xlink="http://www.w3.org/1999/xlink" x="0px" y="0px"
	 width="512px" height="512px" viewBox="0 0 512 512" enable-background="new 0 0 512 512" xml:space="preserve">
<g>
	<path fill="#F6A14D" d="M337.847,201.149c10.516,15.667,16.677,34.545,16.677,54.857c0,54.395-44.1,98.517-98.529,98.517
		c-7.761,0-15.292-0.926-22.513-2.626l-22.322,95.048c14.405,3.354,29.403,5.215,44.834,5.215
		c108.328,0,196.156-87.826,196.156-196.153c0-40.425-12.243-78.005-33.206-109.236L337.847,201.149z"/>
	<path fill="#E35040" d="M157.477,256.007c0-54.414,44.1-98.53,98.518-98.53V59.84C147.661,59.84,59.85,147.67,59.85,256.007
		c0,92.877,64.607,170.649,151.31,190.938l22.322-95.048C189.925,341.704,157.477,302.658,157.477,256.007z"/>
	<path fill="#E2DBD7" d="M337.847,201.149l81.098-54.378c-35.216-52.414-95.05-86.931-162.95-86.931v97.637
		C290.11,157.477,320.151,174.793,337.847,201.149z"/>
</g>
</svg>
