<?xml version="1.0" encoding="utf-8"?>
<!-- Generator: Adobe Illustrator 16.0.0, SVG Export Plug-In . SVG Version: 6.00 Build 0)  -->
<!DOCTYPE svg PUBLIC "-//W3C//DTD SVG 1.1//EN" "http://www.w3.org/Graphics/SVG/1.1/DTD/svg11.dtd">
<svg version="1.1" id="图层_1" xmlns="http://www.w3.org/2000/svg" xmlns:xlink="http://www.w3.org/1999/xlink" x="0px" y="0px"
	 width="512px" height="512px" viewBox="0 0 512 512" enable-background="new 0 0 512 512" xml:space="preserve">
<path fill="#70B0DE" d="M511.796,459.304c0,28.991-23.501,52.492-52.492,52.492H52.498C23.506,511.796,0,488.295,0,459.304V52.498
	C0,23.506,23.506,0,52.498,0h406.806c28.991,0,52.492,23.506,52.492,52.498V459.304L511.796,459.304z"/>
<g>
	<g opacity="0.5">
		<path fill="#3A6F8F" d="M262.395,156.181c-69.981,0-126.914,56.941-126.914,126.925c0,29.615,10.426,58.443,29.364,81.178
			c1.677,2.012,4.156,3.172,6.777,3.172h181.556c2.621,0,5.101-1.16,6.777-3.172c18.935-22.734,29.364-51.563,29.364-81.178
			C389.319,213.122,332.383,156.181,262.395,156.181z M348.941,349.816H175.848c-14.677-19.045-22.728-42.578-22.728-66.711
			c0-60.253,49.021-109.275,109.274-109.275c60.261,0,109.286,49.022,109.286,109.275
			C371.681,307.238,363.635,330.771,348.941,349.816z"/>
		<path fill="#3A6F8F" d="M272.082,297.707h0.012l-57.158-47.284l-0.021,0.021c-1.621-1.371-3.689-2.225-5.979-2.225
			c-5.155,0-9.331,4.177-9.326,9.328c0,2.178,0.773,4.16,2.038,5.752l-0.02,0.01l47.213,56.938c0.604,0.943,1.266,1.822,2.038,2.615
			l0.142,0.172l0,0c3.001,3.025,7.162,4.918,11.766,4.918c9.135,0,16.554-7.414,16.554-16.555
			C279.341,305.703,276.459,300.684,272.082,297.707z"/>
		<path fill="#3A6F8F" d="M178.864,279.195h-9.141c-2.921,0-5.291,2.365-5.291,5.291c0,2.922,2.37,5.289,5.291,5.289h9.141
			c2.927,0,5.296-2.367,5.296-5.289C184.16,281.561,181.791,279.195,178.864,279.195z"/>
		<path fill="#3A6F8F" d="M205.162,229.653c2.068-2.069,2.068-5.422,0-7.485l-6.882-6.887c-2.073-2.068-5.416-2.068-7.484,0
			c-2.067,2.068-2.067,5.422,0,7.489l6.888,6.883c1.033,1.033,2.384,1.551,3.744,1.551
			C202.773,231.204,204.128,230.686,205.162,229.653z"/>
		<path fill="#3A6F8F" d="M263.55,203.952c2.921,0,5.291-2.368,5.291-5.295v-8.749c0-2.926-2.37-5.295-5.291-5.295
			c-2.927,0-5.301,2.369-5.301,5.295v8.749C258.249,201.583,260.623,203.952,263.55,203.952z"/>
		<path fill="#3A6F8F" d="M327.931,215.402l-6.767,6.766c-2.058,2.069-2.058,5.416,0,7.485c1.04,1.033,2.395,1.551,3.75,1.551
			c1.351,0,2.705-0.518,3.739-1.551l6.767-6.772c2.068-2.068,2.068-5.421,0-7.484C333.352,213.333,329.998,213.328,327.931,215.402z
			"/>
		<path fill="#3A6F8F" d="M354.881,279.201h-9.523c-2.925,0-5.288,2.369-5.288,5.289c0,2.928,2.363,5.291,5.288,5.291h9.523
			c2.927,0,5.295-2.363,5.295-5.291C360.176,281.57,357.808,279.201,354.881,279.201z"/>
	</g>
	<g>
		<path fill="#FFFFFF" d="M249.595,144.544c-69.982,0-126.914,56.941-126.914,126.924c0,29.615,10.426,58.443,29.364,81.178
			c1.677,2.012,4.156,3.172,6.776,3.172h181.557c2.62,0,5.101-1.16,6.777-3.172c18.935-22.734,29.364-51.563,29.364-81.178
			C376.52,201.486,319.582,144.544,249.595,144.544z M336.142,338.18H163.048c-14.678-19.045-22.729-42.578-22.729-66.711
			c0-60.253,49.021-109.275,109.275-109.275c60.261,0,109.286,49.022,109.286,109.275
			C358.881,295.602,350.835,319.135,336.142,338.18z"/>
		<path fill="#FFFFFF" d="M259.282,286.07h0.011l-57.158-47.283l-0.02,0.021c-1.622-1.372-3.689-2.225-5.979-2.225
			c-5.155,0-9.331,4.178-9.326,9.327c0,2.178,0.772,4.16,2.038,5.753l-0.02,0.009l47.213,56.938
			c0.603,0.943,1.266,1.822,2.038,2.615l0.141,0.172l0,0c3.002,3.025,7.163,4.918,11.767,4.918c9.135,0,16.554-7.414,16.554-16.555
			C266.541,294.066,263.659,289.049,259.282,286.07z"/>
		<path fill="#FFFFFF" d="M166.064,267.559h-9.141c-2.921,0-5.291,2.365-5.291,5.291c0,2.922,2.37,5.291,5.291,5.291h9.141
			c2.927,0,5.296-2.369,5.296-5.291C171.36,269.924,168.991,267.559,166.064,267.559z"/>
		<path fill="#FFFFFF" d="M192.362,218.017c2.068-2.069,2.068-5.421,0-7.485l-6.882-6.886c-2.073-2.068-5.416-2.068-7.484,0
			s-2.068,5.421,0,7.489l6.887,6.883c1.034,1.033,2.385,1.551,3.745,1.551C189.973,219.568,191.328,219.05,192.362,218.017z"/>
		<path fill="#FFFFFF" d="M250.75,192.315c2.921,0,5.291-2.368,5.291-5.295v-8.749c0-2.926-2.37-5.296-5.291-5.296
			c-2.928,0-5.301,2.37-5.301,5.296v8.749C245.449,189.947,247.822,192.315,250.75,192.315z"/>
		<path fill="#FFFFFF" d="M315.13,203.765l-6.766,6.766c-2.059,2.069-2.059,5.416,0,7.485c1.04,1.033,2.395,1.551,3.75,1.551
			c1.35,0,2.704-0.518,3.738-1.551l6.768-6.771c2.068-2.068,2.068-5.422,0-7.484C320.552,201.697,317.198,201.691,315.13,203.765z"
			/>
		<path fill="#FFFFFF" d="M342.08,267.564h-9.522c-2.925,0-5.289,2.369-5.289,5.291c0,2.926,2.364,5.291,5.289,5.291h9.522
			c2.928,0,5.296-2.365,5.296-5.291C347.376,269.934,345.008,267.564,342.08,267.564z"/>
	</g>
</g>
</svg>
