<?xml version="1.0" encoding="utf-8"?>
<!-- Generator: Adobe Illustrator 16.0.0, SVG Export Plug-In . SVG Version: 6.00 Build 0)  -->
<!DOCTYPE svg PUBLIC "-//W3C//DTD SVG 1.1//EN" "http://www.w3.org/Graphics/SVG/1.1/DTD/svg11.dtd">
<svg version="1.1" id="图层_1" xmlns="http://www.w3.org/2000/svg" xmlns:xlink="http://www.w3.org/1999/xlink" x="0px" y="0px"
	 width="512px" height="512px" viewBox="0 0 512 512" enable-background="new 0 0 512 512" xml:space="preserve">
<g>
	<path fill-rule="evenodd" clip-rule="evenodd" fill="#DC323A" d="M256,303.714c16.022,0,29.016,12.994,29.016,29.017
		c0,16.021-12.993,29.016-29.016,29.016c-16.021,0-29.016-12.994-29.016-29.016C226.984,316.708,239.979,303.714,256,303.714
		L256,303.714z M256,308.996c-13.105,0-23.733,10.628-23.733,23.734c0,13.105,10.628,23.732,23.733,23.732
		c13.105,0,23.733-10.627,23.733-23.732C279.733,319.624,269.105,308.996,256,308.996z"/>
	<path fill-rule="evenodd" clip-rule="evenodd" fill="#DC323A" d="M67.63,306.974l0.682-4.61l163.183,20.949
		c-1.317,3.523-1.863,7.279-1.626,10.998L67.63,306.974z"/>
	<path fill-rule="evenodd" clip-rule="evenodd" fill="#82C0A8" d="M256,95.564c128.439,0,232.601,104.161,232.601,232.602
		c0,30.916-6.055,60.414-17.01,87.4l-5.887-1.811c1.605-3.934,3.11-7.916,4.497-11.955l-12.254-4.027l1.942-5.914l12.265,4.027
		c3.103-9.896,5.522-20.092,7.248-30.525l-12.726-1.943l0.938-6.15l12.718,1.939c1.26-9.148,1.964-18.467,2.094-27.926
		l-12.843-0.004v-6.229l12.843,0.004c-0.144-10.547-0.998-20.924-2.532-31.078l-12.71,2.123l-1.024-6.146l12.716-2.119
		c-1.883-10.469-4.492-20.684-7.765-30.599l-12.196,4.208l-2.029-5.89l12.199-4.203c-3.571-9.907-7.818-19.491-12.682-28.703
		l-11.314,6.158l-2.975-5.473l11.31-6.15c-5.151-9.146-10.924-17.899-17.255-26.2l-10.116,7.921L422.215,194l10.109-7.918
		c-6.576-8.15-13.702-15.836-21.33-23.001l-8.658,9.48l-4.598-4.201l8.659-9.474c-7.812-6.948-16.1-13.362-24.821-19.187
		l-6.986,10.804l-5.228-3.382l6.989-10.804c-8.827-5.554-18.063-10.518-27.655-14.828l-5.12,11.847l-5.715-2.469l5.12-11.845
		c-9.595-3.997-19.528-7.358-29.735-10.02l-3.092,12.536l-6.046-1.495l3.094-12.532c-10.087-2.336-20.438-3.979-30.991-4.907
		l-0.973,12.822l-6.208-0.472l0.973-12.814c-4.633-0.282-9.298-0.443-14.003-0.443c-5.843,0-11.634,0.219-17.37,0.654l1.161,12.822
		l-6.198,0.561l-1.16-12.823c-10.539,1.09-20.855,2.91-30.911,5.397l3.272,12.478l-6.021,1.578l-3.272-12.481
		c-10.168,2.813-20.047,6.32-29.586,10.463l5.289,11.764l-5.676,2.553l-5.287-11.759c-9.525,4.453-18.687,9.542-27.435,15.227
		l7.145,10.7l-5.176,3.458l-7.141-10.692c-8.632,5.95-16.832,12.483-24.54,19.541l8.8,9.355l-4.536,4.263l-8.795-9.347
		c-7.521,7.271-14.538,15.057-20.995,23.306l10.234,7.78l-3.766,4.954l-10.233-7.775c-6.205,8.396-11.857,17.226-16.874,26.45
		l11.416,5.997l-2.896,5.509l-11.414-5.991c-4.721,9.276-8.817,18.928-12.242,28.89l12.261,4.031l-1.943,5.913l-12.268-4.03
		c-3.098,9.896-5.523,20.096-7.248,30.527l12.727,1.941l-0.938,6.154l-12.72-1.939c-1.254,9.145-1.964,18.467-2.092,27.922
		l12.845,0.004l-0.002,6.229l-12.843-0.004c0.146,10.551,0.991,20.928,2.532,31.078l12.71-2.121l1.026,6.145L33.125,368.5
		c1.886,10.465,4.494,20.682,7.767,30.594l12.194-4.203l2.027,5.889l-12.194,4.205c1.162,3.223,2.403,6.41,3.707,9.563l-5.862,1.889
		c-11.182-27.223-17.364-57.023-17.364-88.27C23.399,199.726,127.561,95.564,256,95.564z"/>
</g>
</svg>
