<?xml version="1.0" encoding="utf-8"?>
<!-- Generator: Adobe Illustrator 16.0.0, SVG Export Plug-In . SVG Version: 6.00 Build 0)  -->
<!DOCTYPE svg PUBLIC "-//W3C//DTD SVG 1.1//EN" "http://www.w3.org/Graphics/SVG/1.1/DTD/svg11.dtd">
<svg version="1.1" id="图层_1" xmlns="http://www.w3.org/2000/svg" xmlns:xlink="http://www.w3.org/1999/xlink" x="0px" y="0px"
	 width="512px" height="512px" viewBox="0 0 512 512" enable-background="new 0 0 512 512" xml:space="preserve">
<g>
	<path fill="#007D43" stroke="#FFFFFF" stroke-width="0.7976" stroke-miterlimit="10" d="M322.208,321.406
		c6.511,11.254,10.253,24.302,10.253,38.23h173.337c0-45.512-12.172-88.169-33.443-124.917L322.208,321.406z"/>
	<path fill="#A82235" stroke="#FFFFFF" stroke-width="0.7976" stroke-miterlimit="10" d="M189.786,321.406L39.64,234.719
		C18.376,271.468,6.202,314.132,6.202,359.637h173.337C179.539,345.708,183.281,332.66,189.786,321.406z"/>
	<path fill="#C6D938" stroke="#FFFFFF" stroke-width="0.7976" stroke-miterlimit="10" d="M294.224,293.431l86.689-150.154
		c-36.742-21.263-79.407-33.437-124.913-33.437v173.337C269.931,283.177,282.979,286.918,294.224,293.431z"/>
	<path fill="#71B858" stroke="#FFFFFF" stroke-width="0.7976" stroke-miterlimit="10" d="M322.208,321.406l150.146-86.687
		c-21.931-37.904-53.531-69.513-91.441-91.443l-86.689,150.154C305.829,300.144,315.495,309.808,322.208,321.406z"/>
	<path fill="#FFD42D" stroke="#FFFFFF" stroke-width="0.7976" stroke-miterlimit="10" d="M256,283.177V109.839
		c-45.505,0-88.17,12.174-124.912,33.437l86.682,150.154C229.021,286.918,242.07,283.177,256,283.177z"/>
	<path fill="#CD6336" stroke="#FFFFFF" stroke-width="0.7976" stroke-miterlimit="10" d="M217.77,293.431l-86.682-150.154
		c-37.91,21.93-69.519,53.539-91.448,91.443l150.146,86.687C196.506,309.808,206.171,300.144,217.77,293.431z"/>
	<polygon points="267.454,364.939 244.545,341.96 399.446,200.074 409.804,210.457 	"/>
	<path d="M290.391,387.942c19.057-18.993,19.102-49.836,0.104-68.886c-18.998-19.051-49.835-19.096-68.892-0.105
		c-19.05,18.999-19.096,49.843-0.099,68.892C240.504,406.894,271.341,406.938,290.391,387.942z"/>
	<path d="M279.445,376.958c12.982-12.945,13.009-33.967,0.065-46.95c-12.944-12.982-33.966-13.016-46.949-0.072
		c-12.989,12.951-13.021,33.972-0.072,46.957C245.434,389.875,266.455,389.901,279.445,376.958z"/>
</g>
</svg>
