<?xml version="1.0" encoding="utf-8"?>
<!-- Generator: Adobe Illustrator 16.0.0, SVG Export Plug-In . SVG Version: 6.00 Build 0)  -->
<!DOCTYPE svg PUBLIC "-//W3C//DTD SVG 1.1//EN" "http://www.w3.org/Graphics/SVG/1.1/DTD/svg11.dtd">
<svg version="1.1" id="图层_1" xmlns="http://www.w3.org/2000/svg" xmlns:xlink="http://www.w3.org/1999/xlink" x="0px" y="0px"
	 width="512px" height="512px" viewBox="0 0 512 512" enable-background="new 0 0 512 512" xml:space="preserve">
<path fill="#70B0DE" d="M511.898,459.406c0,28.989-23.502,52.492-52.492,52.492H52.6c-28.992,0-52.498-23.503-52.498-52.492V52.6
	c0-28.992,23.506-52.498,52.498-52.498h406.806c28.99,0,52.492,23.506,52.492,52.498V459.406L511.898,459.406z"/>
<g opacity="0.5">
	<polygon fill="#3A6F8F" points="256,130.228 228.51,177.836 283.49,177.836 	"/>
	<polygon fill="#3A6F8F" points="324.824,256.004 310.979,232.02 201.021,232.02 187.175,256.004 173.535,279.635 338.465,279.635 	
		"/>
	<polygon fill="#3A6F8F" points="283.49,181.12 228.51,181.12 201.021,228.734 310.979,228.734 	"/>
	<polygon fill="#3A6F8F" points="338.465,282.918 173.535,282.918 146.042,330.529 365.951,330.529 	"/>
	<polygon fill="#3A6F8F" points="146.042,333.813 118.357,381.772 256,381.772 393.643,381.772 365.951,333.813 	"/>
</g>
<g>
	<polygon fill="#FFFFFF" points="242,122.228 214.51,169.836 269.49,169.836 	"/>
	<polygon fill="#FFFFFF" points="310.824,248.004 296.979,224.02 187.021,224.02 173.175,248.004 159.535,271.635 324.465,271.635 	
		"/>
	<polygon fill="#FFFFFF" points="269.49,173.12 214.51,173.12 187.021,220.734 296.979,220.734 	"/>
	<polygon fill="#FFFFFF" points="324.465,274.918 159.535,274.918 132.042,322.529 351.951,322.529 	"/>
	<polygon fill="#FFFFFF" points="132.042,325.813 104.357,373.772 242,373.772 379.643,373.772 351.951,325.813 	"/>
</g>
</svg>
