<?xml version="1.0" encoding="utf-8"?>
<!-- Generator: Adobe Illustrator 16.0.0, SVG Export Plug-In . SVG Version: 6.00 Build 0)  -->
<!DOCTYPE svg PUBLIC "-//W3C//DTD SVG 1.1//EN" "http://www.w3.org/Graphics/SVG/1.1/DTD/svg11.dtd">
<svg version="1.1" id="图层_1" xmlns="http://www.w3.org/2000/svg" xmlns:xlink="http://www.w3.org/1999/xlink" x="0px" y="0px"
	 width="512px" height="512px" viewBox="0 0 512 512" enable-background="new 0 0 512 512" xml:space="preserve">
<path fill="#70B0DE" d="M511.796,459.304c0,28.991-23.501,52.492-52.492,52.492H52.498C23.506,511.796,0,488.295,0,459.304V52.498
	C0,23.506,23.506,0,52.498,0h406.806c28.991,0,52.492,23.506,52.492,52.498V459.304L511.796,459.304z"/>
<g opacity="0.3">
	<rect x="106.507" y="130.251" fill="#3A6F8F" width="103.495" height="34.499"/>
	<rect x="106.507" y="184.751" fill="#3A6F8F" width="140.993" height="34.499"/>
	<rect x="106.507" y="239.251" fill="#3A6F8F" width="181.491" height="34.499"/>
	<rect x="106.507" y="293.751" fill="#3A6F8F" width="226.489" height="34.498"/>
	<rect x="106.507" y="348.251" fill="#3A6F8F" width="281.986" height="34.498"/>
</g>
<g>
	<rect x="114.507" y="121.251" fill="#FFFFFF" width="103.495" height="34.499"/>
	<rect x="114.507" y="175.751" fill="#FFFFFF" width="140.993" height="34.499"/>
	<rect x="114.507" y="230.251" fill="#FFFFFF" width="181.491" height="34.499"/>
	<rect x="114.507" y="284.751" fill="#FFFFFF" width="226.489" height="34.498"/>
	<rect x="114.507" y="339.251" fill="#FFFFFF" width="281.986" height="34.498"/>
</g>
</svg>
