<?xml version="1.0" encoding="utf-8"?>
<!-- Generator: Adobe Illustrator 16.0.0, SVG Export Plug-In . SVG Version: 6.00 Build 0)  -->
<!DOCTYPE svg PUBLIC "-//W3C//DTD SVG 1.1//EN" "http://www.w3.org/Graphics/SVG/1.1/DTD/svg11.dtd">
<svg version="1.1" id="图层_1" xmlns="http://www.w3.org/2000/svg" xmlns:xlink="http://www.w3.org/1999/xlink" x="0px" y="0px"
	 width="512px" height="512px" viewBox="0 0 512 512" enable-background="new 0 0 512 512" xml:space="preserve">
<g>
	<rect x="12.792" y="136.039" fill="#C1C1C1" width="1.328" height="239.258"/>
</g>
<g>
	<rect x="13.455" y="374.635" fill="#B7B7B7" width="484.896" height="1.326"/>
</g>
<g>
	<g>
		
			<rect x="59.738" y="255.991" transform="matrix(-0.4384 -0.8988 0.8988 -0.4384 -190.0192 497.4173)" fill="#E2DBD7" width="1.328" height="104.173"/>
		<polygon fill="#E35040" points="12.72,334.967 9.892,329.17 108.077,281.168 110.916,286.963 		"/>
	</g>
</g>
<g>
	<g>
		
			<rect x="98.586" y="311.939" transform="matrix(-0.8209 -0.5711 0.5711 -0.8209 88.3897 652.925)" fill="#E2DBD7" width="95.996" height="1.326"/>
		
			<rect x="96.052" y="309.359" transform="matrix(-0.8209 -0.571 0.571 -0.8209 88.4723 652.9127)" fill="#E35040" width="101.112" height="6.452"/>
	</g>
</g>
<g>
	<g>
		<polygon fill="#E2DBD7" points="186.578,340.326 185.415,339.684 275.117,178.936 276.277,179.583 		"/>
		<polygon fill="#E35040" points="187.571,343.805 181.925,340.68 274.128,175.452 279.764,178.593 		"/>
	</g>
</g>
<g>
	<g>
		
			<rect x="252.248" y="223.299" transform="matrix(-0.5684 -0.8227 0.8227 -0.5684 296.6167 603.5185)" fill="#E2DBD7" width="108.704" height="1.327"/>
		<polygon fill="#E35040" points="336.291,272.639 271.591,178.988 276.893,175.313 341.602,268.977 		"/>
	</g>
</g>
<g>
	<g>
		
			<rect x="380.597" y="197.192" transform="matrix(-0.4566 -0.8897 0.8897 -0.4566 336.1727 698.0339)" fill="#E2DBD7" width="1.328" height="98.319"/>
		<polygon fill="#E35040" points="336.681,272.734 333.733,266.996 425.857,219.948 428.8,225.686 		"/>
	</g>
</g>
<g>
	<g>
		
			<rect x="420.42" y="242.326" transform="matrix(-0.8876 -0.4606 0.4606 -0.8876 759.61 671.3319)" fill="#E2DBD7" width="82.585" height="1.324"/>
		
			<rect x="417.856" y="239.766" transform="matrix(-0.8876 -0.4606 0.4606 -0.8876 759.6063 671.3342)" fill="#E35040" width="87.711" height="6.447"/>
	</g>
</g>
<g>
	<rect x="61.01" y="360.195" fill="#E2DBD7" width="1.327" height="14.106"/>
</g>
<g>
	<rect x="103.145" y="360.195" fill="#E2DBD7" width="1.324" height="14.106"/>
</g>
<g>
	<rect x="146.615" y="360.195" fill="#E2DBD7" width="1.33" height="14.106"/>
</g>
<g>
	<rect x="189.419" y="360.195" fill="#E2DBD7" width="1.324" height="14.106"/>
</g>
<g>
	<rect x="231.55" y="360.195" fill="#E2DBD7" width="1.324" height="14.106"/>
</g>
<g>
	<rect x="275.023" y="360.195" fill="#E2DBD7" width="1.326" height="14.106"/>
</g>
<g>
	<rect x="317.826" y="360.195" fill="#E2DBD7" width="1.325" height="14.106"/>
</g>
<g>
	<rect x="359.957" y="360.195" fill="#E2DBD7" width="1.327" height="14.106"/>
</g>
<g>
	<rect x="403.434" y="360.195" fill="#E2DBD7" width="1.326" height="14.106"/>
</g>
<g>
	<rect x="446.231" y="360.195" fill="#E2DBD7" width="1.326" height="14.106"/>
</g>
<g>
	<rect x="488.363" y="360.195" fill="#E2DBD7" width="1.327" height="14.106"/>
</g>
</svg>
