<?xml version="1.0" encoding="utf-8"?>
<!-- Generator: Adobe Illustrator 16.0.0, SVG Export Plug-In . SVG Version: 6.00 Build 0)  -->
<!DOCTYPE svg PUBLIC "-//W3C//DTD SVG 1.1//EN" "http://www.w3.org/Graphics/SVG/1.1/DTD/svg11.dtd">
<svg version="1.1" id="图层_1" xmlns="http://www.w3.org/2000/svg" xmlns:xlink="http://www.w3.org/1999/xlink" x="0px" y="0px"
	 width="512px" height="512px" viewBox="0 0 512 512" enable-background="new 0 0 512 512" xml:space="preserve">
<path fill="#70B0DE" d="M511.796,459.304c0,28.991-23.501,52.492-52.492,52.492H52.498C23.506,511.796,0,488.295,0,459.304V52.498
	C0,23.506,23.506,0,52.498,0h406.806c28.991,0,52.492,23.506,52.492,52.498V459.304L511.796,459.304z"/>
<g opacity="0.5">
	<path fill="#3A6F8F" d="M365.25,210.647l-60.41,80.333c5.352,1.939,9.941,5.441,13.24,9.965l60.223-80.104
		C372.998,218.81,368.457,215.23,365.25,210.647z"/>
	<path fill="#3A6F8F" d="M223.672,210.816c-3.244,4.558-7.802,8.102-13.125,10.096l61.779,80.279
		c3.23-4.559,7.797-8.096,13.125-10.098L223.672,210.816z"/>
	<path fill="#3A6F8F" d="M174.98,206.028l-35.738,31.282c4.667,3.111,8.349,7.563,10.499,12.818l36.167-31.643
		C181.132,215.519,177.3,211.194,174.98,206.028z"/>
	<path fill="#3A6F8F" d="M218.235,203.745c1.467-2.763,2.373-5.868,2.373-9.214c0-10.987-8.926-19.906-19.918-19.906
		c-10.979,0-19.9,8.919-19.9,19.906c0,1.97,0.378,3.832,0.906,5.622c1.652,5.587,5.622,10.152,10.855,12.507
		c2.498,1.128,5.244,1.777,8.139,1.777c1.543,0,3.021-0.204,4.457-0.541C210.865,212.587,215.58,208.81,218.235,203.745z"/>
	<path fill="#3A6F8F" d="M312.727,308.047c-0.666-1.227-1.465-2.369-2.355-3.426c-0.021-0.043-0.059-0.084-0.084-0.107
		c-0.852-0.992-1.807-1.887-2.822-2.691c-0.113-0.084-0.211-0.174-0.318-0.252c-0.973-0.746-2.029-1.369-3.141-1.922
		c-0.168-0.072-0.324-0.182-0.5-0.266c-1.248-0.576-2.576-1.031-3.963-1.334c-0.008,0-0.008,0-0.008,0
		c-1.369-0.299-2.781-0.48-4.24-0.48c-3.014,0-5.85,0.723-8.42,1.924c-0.133,0.072-0.254,0.148-0.385,0.217
		c-1.143,0.564-2.223,1.225-3.221,1.994c-0.096,0.07-0.191,0.162-0.275,0.227c-1.033,0.83-1.988,1.742-2.828,2.752
		c-0.037,0.035-0.055,0.061-0.09,0.096c-0.848,1.016-1.57,2.139-2.211,3.316c-0.037,0.047-0.084,0.102-0.121,0.168l0.023,0.023
		c-1.477,2.74-2.371,5.84-2.371,9.191c0,10.99,8.908,19.898,19.898,19.898c10.986,0,19.908-8.908,19.908-19.898
		c0-3.426-0.951-6.607-2.469-9.42L312.727,308.047z"/>
	<path fill="#3A6F8F" d="M388.346,174.625c-10.998,0-19.9,8.919-19.9,19.906c0,3.232,0.842,6.234,2.199,8.938
		c2.588,5.105,7.262,8.938,12.949,10.337c1.531,0.378,3.111,0.631,4.752,0.631c10.98,0,19.9-8.903,19.9-19.906
		C408.246,183.544,399.326,174.625,388.346,174.625z"/>
	<path fill="#3A6F8F" d="M132.61,243.103c-2.697-1.383-5.706-2.224-8.95-2.224c-10.992,0-19.906,8.913-19.906,19.906
		c0,10.992,8.914,19.898,19.906,19.898c10.986,0,19.906-8.906,19.906-19.898c0-1.635-0.252-3.197-0.625-4.709
		C141.555,250.381,137.729,245.696,132.61,243.103z"/>
</g>
<g>
	<path fill="#FFFFFF" d="M351.25,198.647l-60.41,80.333c5.352,1.939,9.941,5.441,13.24,9.965l60.223-80.104
		C358.998,206.81,354.457,203.23,351.25,198.647z"/>
	<path fill="#FFFFFF" d="M209.672,198.816c-3.244,4.558-7.802,8.102-13.125,10.096l61.779,80.279
		c3.23-4.559,7.797-8.096,13.125-10.098L209.672,198.816z"/>
	<path fill="#FFFFFF" d="M160.98,194.028l-35.738,31.282c4.667,3.111,8.349,7.563,10.499,12.818l36.167-31.643
		C167.132,203.519,163.3,199.194,160.98,194.028z"/>
	<path fill="#FFFFFF" d="M204.235,191.745c1.467-2.763,2.373-5.868,2.373-9.214c0-10.987-8.926-19.906-19.918-19.906
		c-10.979,0-19.9,8.919-19.9,19.906c0,1.97,0.378,3.832,0.906,5.622c1.652,5.587,5.622,10.152,10.855,12.507
		c2.498,1.128,5.244,1.777,8.139,1.777c1.543,0,3.021-0.204,4.457-0.541C196.865,200.587,201.58,196.81,204.235,191.745z"/>
	<path fill="#FFFFFF" d="M298.727,296.047c-0.666-1.227-1.465-2.369-2.355-3.426c-0.021-0.043-0.059-0.084-0.084-0.107
		c-0.852-0.992-1.807-1.887-2.822-2.691c-0.113-0.084-0.211-0.174-0.318-0.252c-0.973-0.746-2.029-1.369-3.141-1.922
		c-0.168-0.072-0.324-0.182-0.5-0.266c-1.248-0.576-2.576-1.031-3.963-1.334c-0.008,0-0.008,0-0.008,0
		c-1.369-0.299-2.781-0.48-4.24-0.48c-3.014,0-5.85,0.723-8.42,1.924c-0.133,0.072-0.254,0.148-0.385,0.217
		c-1.143,0.564-2.223,1.225-3.221,1.994c-0.096,0.07-0.191,0.162-0.275,0.227c-1.033,0.83-1.988,1.742-2.828,2.752
		c-0.037,0.035-0.055,0.061-0.09,0.096c-0.848,1.016-1.57,2.139-2.211,3.316c-0.037,0.047-0.084,0.102-0.121,0.168l0.023,0.023
		c-1.477,2.74-2.371,5.84-2.371,9.191c0,10.99,8.908,19.898,19.898,19.898c10.986,0,19.908-8.908,19.908-19.898
		c0-3.426-0.951-6.607-2.469-9.42L298.727,296.047z"/>
	<path fill="#FFFFFF" d="M374.346,162.625c-10.998,0-19.9,8.919-19.9,19.906c0,3.232,0.842,6.234,2.199,8.938
		c2.588,5.105,7.262,8.938,12.949,10.337c1.531,0.378,3.111,0.631,4.752,0.631c10.98,0,19.9-8.903,19.9-19.906
		C394.246,171.544,385.326,162.625,374.346,162.625z"/>
	<path fill="#FFFFFF" d="M118.61,231.103c-2.697-1.383-5.706-2.224-8.95-2.224c-10.992,0-19.906,8.913-19.906,19.906
		c0,10.992,8.914,19.898,19.906,19.898c10.986,0,19.906-8.906,19.906-19.898c0-1.635-0.252-3.197-0.625-4.709
		C127.555,238.381,123.729,233.696,118.61,231.103z"/>
</g>
</svg>
