<?xml version="1.0" encoding="utf-8"?>
<!-- Generator: Adobe Illustrator 16.0.0, SVG Export Plug-In . SVG Version: 6.00 Build 0)  -->
<!DOCTYPE svg PUBLIC "-//W3C//DTD SVG 1.1//EN" "http://www.w3.org/Graphics/SVG/1.1/DTD/svg11.dtd">
<svg version="1.1" id="图层_1" xmlns="http://www.w3.org/2000/svg" xmlns:xlink="http://www.w3.org/1999/xlink" x="0px" y="0px"
	 width="512px" height="512px" viewBox="0 0 512 512" enable-background="new 0 0 512 512" xml:space="preserve">
<path fill="#666666" d="M68.257,314.5H11.5V206.202h56.757V314.5z M17.659,308.341h44.438v-95.98H17.659V308.341z"/>
<path fill="#666666" d="M130.201,314.5H73.445V206.202h56.756V314.5z M79.605,308.341h44.438v-95.98H79.605V308.341z"/>
<path fill="#666666" d="M192.147,314.5h-56.755V206.202h56.755V314.5z M141.551,308.341h44.437v-95.98h-44.437V308.341z"/>
<path fill="#666666" d="M254.093,314.5h-56.757V206.202h56.757V314.5z M203.497,308.341h44.438v-95.98h-44.438V308.341z"/>
<path fill="#666666" d="M316.039,314.5h-56.758V206.202h56.758V314.5z M265.441,308.341h44.438v-95.98h-44.438V308.341z"/>
<path fill="#666666" d="M377.984,314.5h-56.756V206.202h56.756V314.5z M327.388,308.341h44.438v-95.98h-44.438V308.341z"/>
<path fill="#666666" d="M439.93,314.5h-56.756V206.202h56.756V314.5z M389.333,308.341h44.438v-95.98h-44.438V308.341z"/>
<path fill="#666666" d="M501.876,314.5h-56.757V206.202h56.757V314.5z M451.278,308.341h44.438v-95.98h-44.438V308.341z"/>
<text transform="matrix(1 0 0 1 22.2783 281.1426)" fill="#2C89B7" font-family="'ArialMT'" font-size="61.5916">0</text>
<text transform="matrix(1 0 0 1 84.3101 281.1426)" fill="#2C89B7" font-family="'ArialMT'" font-size="61.5916">0</text>
<text transform="matrix(1 0 0 1 146.3413 281.1426)" fill="#2C89B7" font-family="'ArialMT'" font-size="61.5916">0</text>
<text transform="matrix(1 0 0 1 208.373 281.1426)" fill="#6DB64D" font-family="'ArialMT'" font-size="61.5916">9</text>
<text transform="matrix(1 0 0 1 270.4053 281.1426)" fill="#E35040" font-family="'ArialMT'" font-size="61.5916">4</text>
<text transform="matrix(1 0 0 1 332.4355 281.1426)" fill="#F6A14D" font-family="'ArialMT'" font-size="61.5916">8</text>
<text transform="matrix(1 0 0 1 394.4678 281.1426)" fill="#3A9AD3" font-family="'ArialMT'" font-size="61.5916">2</text>
<text transform="matrix(1 0 0 1 456.499 281.1426)" fill="#47B7E2" font-family="'ArialMT'" font-size="61.5916">5</text>
</svg>
