<?xml version="1.0" encoding="utf-8"?>
<!-- Generator: Adobe Illustrator 16.0.0, SVG Export Plug-In . SVG Version: 6.00 Build 0)  -->
<!DOCTYPE svg PUBLIC "-//W3C//DTD SVG 1.1//EN" "http://www.w3.org/Graphics/SVG/1.1/DTD/svg11.dtd">
<svg version="1.1" id="图层_1" xmlns="http://www.w3.org/2000/svg" xmlns:xlink="http://www.w3.org/1999/xlink" x="0px" y="0px"
	 width="512px" height="512px" viewBox="0 0 512 512" enable-background="new 0 0 512 512" xml:space="preserve">
<path fill="#70B0DE" d="M511.796,459.304c0,28.991-23.501,52.492-52.492,52.492H52.498C23.506,511.796,0,488.295,0,459.304V52.498
	C0,23.506,23.506,0,52.498,0h406.806c28.991,0,52.492,23.506,52.492,52.498V459.304L511.796,459.304z"/>
<g opacity="0.5">
	<path fill="#3A6F8F" d="M76.29,307.5H21V202h55.29V307.5z M27,301.5h43.29V208H27V301.5z"/>
	<path fill="#3A6F8F" d="M136.634,307.5h-55.29V202h55.29V307.5z M87.345,301.5h43.29V208h-43.29V301.5z"/>
	<path fill="#3A6F8F" d="M196.979,307.5H141.69V202h55.289V307.5z M147.69,301.5h43.289V208H147.69V301.5z"/>
	<path fill="#3A6F8F" d="M257.324,307.5h-55.29V202h55.29V307.5z M208.035,301.5h43.29V208h-43.29V301.5z"/>
	<path fill="#3A6F8F" d="M317.669,307.5h-55.29V202h55.29V307.5z M268.379,301.5h43.29V208h-43.29V301.5z"/>
	<path fill="#3A6F8F" d="M378.014,307.5h-55.289V202h55.289V307.5z M328.725,301.5h43.289V208h-43.289V301.5z"/>
	<path fill="#3A6F8F" d="M438.358,307.5h-55.289V202h55.289V307.5z M389.069,301.5h43.289V208h-43.289V301.5z"/>
	<path fill="#3A6F8F" d="M498.704,307.5h-55.29V202h55.29V307.5z M449.414,301.5h43.29V208h-43.29V301.5z"/>
	<text transform="matrix(1 0 0 1 31.5 275.0039)" fill="#3A6F8F" font-family="'ArialMT'" font-size="60" letter-spacing="1">0</text>
	<text transform="matrix(1 0 0 1 91.9287 275.0039)" fill="#3A6F8F" font-family="'ArialMT'" font-size="60" letter-spacing="1">0</text>
	<text transform="matrix(1 0 0 1 152.3569 275.0039)" fill="#3A6F8F" font-family="'ArialMT'" font-size="60" letter-spacing="1">0</text>
	<text transform="matrix(1 0 0 1 212.7856 275.0039)" fill="#3A6F8F" font-family="'ArialMT'" font-size="60" letter-spacing="1">9</text>
	<text transform="matrix(1 0 0 1 273.2148 275.0039)" fill="#3A6F8F" font-family="'ArialMT'" font-size="60" letter-spacing="1">4</text>
	<text transform="matrix(1 0 0 1 333.6426 275.0039)" fill="#3A6F8F" font-family="'ArialMT'" font-size="60" letter-spacing="1">8</text>
	<text transform="matrix(1 0 0 1 394.0713 275.0039)" fill="#3A6F8F" font-family="'ArialMT'" font-size="60" letter-spacing="1">2</text>
	<text transform="matrix(1 0 0 1 454.5 275.0039)" fill="#3A6F8F" font-family="'ArialMT'" font-size="60" letter-spacing="1">5</text>
</g>
<g>
	<path fill="#FFFFFF" d="M72.29,304.5H17V199h55.29V304.5z M23,298.5h43.29V205H23V298.5z"/>
	<path fill="#FFFFFF" d="M132.634,304.5h-55.29V199h55.29V304.5z M83.345,298.5h43.29V205h-43.29V298.5z"/>
	<path fill="#FFFFFF" d="M192.979,304.5H137.69V199h55.289V304.5z M143.69,298.5h43.289V205H143.69V298.5z"/>
	<path fill="#FFFFFF" d="M253.324,304.5h-55.29V199h55.29V304.5z M204.035,298.5h43.29V205h-43.29V298.5z"/>
	<path fill="#FFFFFF" d="M313.669,304.5h-55.29V199h55.29V304.5z M264.379,298.5h43.29V205h-43.29V298.5z"/>
	<path fill="#FFFFFF" d="M374.014,304.5h-55.289V199h55.289V304.5z M324.725,298.5h43.289V205h-43.289V298.5z"/>
	<path fill="#FFFFFF" d="M434.358,304.5h-55.289V199h55.289V304.5z M385.069,298.5h43.289V205h-43.289V298.5z"/>
	<path fill="#FFFFFF" d="M494.704,304.5h-55.29V199h55.29V304.5z M445.414,298.5h43.29V205h-43.29V298.5z"/>
	<text transform="matrix(1 0 0 1 27.5 272.0039)" fill="#FFFFFF" font-family="'ArialMT'" font-size="60" letter-spacing="1">0</text>
	<text transform="matrix(1 0 0 1 87.9287 272.0039)" fill="#FFFFFF" font-family="'ArialMT'" font-size="60" letter-spacing="1">0</text>
	<text transform="matrix(1 0 0 1 148.3569 272.0039)" fill="#FFFFFF" font-family="'ArialMT'" font-size="60" letter-spacing="1">0</text>
	<text transform="matrix(1 0 0 1 208.7856 272.0039)" fill="#FFFFFF" font-family="'ArialMT'" font-size="60" letter-spacing="1">9</text>
	<text transform="matrix(1 0 0 1 269.2148 272.0039)" fill="#FFFFFF" font-family="'ArialMT'" font-size="60" letter-spacing="1">4</text>
	<text transform="matrix(1 0 0 1 329.6426 272.0039)" fill="#FFFFFF" font-family="'ArialMT'" font-size="60" letter-spacing="1">8</text>
	<text transform="matrix(1 0 0 1 390.0713 272.0039)" fill="#FFFFFF" font-family="'ArialMT'" font-size="60" letter-spacing="1">2</text>
	<text transform="matrix(1 0 0 1 450.5 272.0039)" fill="#FFFFFF" font-family="'ArialMT'" font-size="60" letter-spacing="1">5</text>
</g>
</svg>
