<?xml version="1.0" encoding="utf-8"?>
<!-- Generator: Adobe Illustrator 16.0.0, SVG Export Plug-In . SVG Version: 6.00 Build 0)  -->
<!DOCTYPE svg PUBLIC "-//W3C//DTD SVG 1.1//EN" "http://www.w3.org/Graphics/SVG/1.1/DTD/svg11.dtd">
<svg version="1.1" id="图层_1" xmlns="http://www.w3.org/2000/svg" xmlns:xlink="http://www.w3.org/1999/xlink" x="0px" y="0px"
	 width="512px" height="512px" viewBox="0 0 512 512" enable-background="new 0 0 512 512" xml:space="preserve">
<path fill="#70B0DE" d="M511.796,459.304c0,28.991-23.501,52.492-52.492,52.492H52.498C23.506,511.796,0,488.295,0,459.304V52.498
	C0,23.506,23.506,0,52.498,0h406.806c28.991,0,52.492,23.506,52.492,52.498V459.304L511.796,459.304z"/>
<g>
	<g opacity="0.5">
		<path fill="#3A6F8F" d="M353.438,228.725c-2.22,0-3.501,0-85.676,36.231l11.034-90.623c0.579-4.711-2.777-8.995-7.484-9.568
			c-4.522-0.549-9.109-0.828-13.628-0.828c-56.275,0-103.859,42.179-110.676,98.125c-7.439,61.099,36.211,116.861,97.304,124.3
			c4.521,0.555,9.105,0.838,13.633,0.838l0,0c56.275,0,103.844-42.194,110.656-98.13c2.269-18.609-0.21-37.608-7.186-55.001
			C360.093,230.839,356.932,228.725,353.438,228.725z M351.552,286.996c-5.77,47.331-46.009,83.022-93.607,83.022
			c-3.836,0-7.725-0.24-11.555-0.708c-51.692-6.298-88.622-53.474-82.318-105.162c5.764-47.336,46.003-83.033,93.612-83.033
			c0.988,0,1.98,0.02,2.973,0.05l-11.777,96.715c-0.375,3.072,0.928,6.104,3.41,7.938c2.483,1.847,5.765,2.205,8.586,0.958
			c27.844-12.296,70.139-30.846,87.432-38.167C351.996,260.986,353.117,274.101,351.552,286.996z"/>
		<path fill="#3A6F8F" d="M379.744,193.132c-13.019-30.665-41.591-52.251-74.58-56.345c-2.822-0.354-5.395,1.666-5.744,4.488
			l-10.881,87.669c-0.224,1.825,0.539,3.63,2.016,4.747c0.901,0.683,1.999,1.037,3.096,1.037c0.684,0,1.372-0.135,2.009-0.41
			l81.358-34.405c1.261-0.529,2.248-1.546,2.762-2.817C380.299,195.825,380.278,194.389,379.744,193.132z"/>
	</g>
	<g>
		<path fill="#FFFFFF" d="M339.099,216.776c-2.22,0-3.501,0-85.675,36.231l11.033-90.623c0.579-4.711-2.776-8.995-7.483-9.568
			c-4.523-0.548-9.11-0.827-13.628-0.827c-56.276,0-103.86,42.179-110.677,98.126c-7.439,61.098,36.211,116.86,97.304,124.299
			c4.521,0.555,9.105,0.838,13.632,0.838l0,0c56.275,0,103.845-42.193,110.656-98.13c2.269-18.609-0.21-37.608-7.186-55
			C345.755,218.891,342.594,216.776,339.099,216.776z M337.213,275.048c-5.769,47.33-46.009,83.022-93.607,83.022
			c-3.835,0-7.725-0.24-11.554-0.708c-51.692-6.298-88.622-53.475-82.319-105.162c5.764-47.336,46.003-83.033,93.613-83.033
			c0.988,0,1.979,0.02,2.972,0.05l-11.777,96.715c-0.375,3.072,0.928,6.104,3.411,7.938c2.483,1.846,5.764,2.204,8.586,0.958
			c27.844-12.297,70.138-30.847,87.431-38.167C337.657,249.038,338.779,262.152,337.213,275.048z"/>
		<path fill="#FFFFFF" d="M365.405,181.183c-13.019-30.665-41.59-52.251-74.58-56.344c-2.821-0.355-5.395,1.665-5.743,4.487
			l-10.881,87.669c-0.225,1.825,0.539,3.63,2.015,4.747c0.902,0.683,1.999,1.037,3.096,1.037c0.684,0,1.372-0.135,2.01-0.41
			l81.357-34.405c1.262-0.528,2.249-1.546,2.762-2.816C365.96,183.876,365.94,182.44,365.405,181.183z"/>
	</g>
</g>
</svg>
