<?xml version="1.0" encoding="utf-8"?>
<!-- Generator: Adobe Illustrator 16.0.0, SVG Export Plug-In . SVG Version: 6.00 Build 0)  -->
<!DOCTYPE svg PUBLIC "-//W3C//DTD SVG 1.1//EN" "http://www.w3.org/Graphics/SVG/1.1/DTD/svg11.dtd">
<svg version="1.1" id="图层_1" xmlns="http://www.w3.org/2000/svg" xmlns:xlink="http://www.w3.org/1999/xlink" x="0px" y="0px"
	 width="512px" height="512px" viewBox="0 0 512 512" enable-background="new 0 0 512 512" xml:space="preserve">
<g>
	<path fill="#3A9AD3" d="M427.27,226.167c-1.738-10.101-4.328-19.906-7.74-29.317c-3.459-9.602-7.779-18.783-12.813-27.494
		c-5.07-8.809-10.875-17.148-17.348-24.898c-6.52-7.769-13.691-14.954-21.451-21.477c-7.73-6.52-16.033-12.355-24.834-17.448
		c-8.721-5.062-17.9-9.418-27.488-12.918c-9.418-3.44-19.24-6.034-29.355-7.816c-9.822-1.725-19.918-2.668-30.24-2.668v174.236
		h173.869c0-0.122,0.008-0.244,0.008-0.366C429.877,245.828,428.953,235.868,427.27,226.167z"/>
	<path fill="#008A53" d="M92.472,197.017c-3.422,9.413-6.003,19.232-7.75,29.327c-1.675,9.697-2.599,19.652-2.599,29.825
		c0,0.126,0.009,0.258,0.009,0.37c0.019,10.296,0.978,20.377,2.726,30.174c1.784,10.073,4.382,19.869,7.832,29.268
		c3.496,9.562,7.859,18.701,12.903,27.395c5.106,8.76,10.91,17.049,17.411,24.754c6.51,7.731,13.681,14.875,21.422,21.376
		l111.566-132.966l0,0L92.472,197.017z"/>
	<path fill="#E35040" d="M256,256.367L256,256.367L144.434,389.325c7.724,6.478,16.017,12.259,24.8,17.329
		c8.692,5.017,17.837,9.334,27.398,12.807c9.407,3.413,19.177,5.999,29.245,7.75c9.788,1.717,19.838,2.658,30.124,2.658
		c10.285,0,20.335-0.941,30.132-2.658c10.059-1.751,19.838-4.337,29.227-7.75c9.563-3.473,18.715-7.79,27.406-12.807
		c8.773-5.07,17.076-10.86,24.801-17.329c7.75-6.488,14.912-13.637,21.422-21.369c6.492-7.714,12.313-15.989,17.412-24.759
		c5.051-8.696,9.416-17.823,12.91-27.385c3.441-9.411,6.049-19.199,7.832-29.267c1.729-9.812,2.707-19.879,2.727-30.179H256z"/>
	<path fill="#F6A14D" d="M256,256.367l-0.01-174.236c-10.322,0-20.408,0.944-30.25,2.678c-10.104,1.772-19.919,4.366-29.345,7.807
		c-9.598,3.5-18.76,7.866-27.479,12.918c-8.801,5.092-17.122,10.938-24.854,17.448c-7.742,6.523-14.921,13.708-21.422,21.485
		c-6.483,7.742-12.295,16.081-17.357,24.89c-5.025,8.719-9.344,17.892-12.812,27.494l163.51,59.508l0.009,0.009H256z"/>
</g>
</svg>
