<?xml version="1.0" encoding="utf-8"?>
<!-- Generator: Adobe Illustrator 16.0.0, SVG Export Plug-In . SVG Version: 6.00 Build 0)  -->
<!DOCTYPE svg PUBLIC "-//W3C//DTD SVG 1.1//EN" "http://www.w3.org/Graphics/SVG/1.1/DTD/svg11.dtd">
<svg version="1.1" id="图层_1" xmlns="http://www.w3.org/2000/svg" xmlns:xlink="http://www.w3.org/1999/xlink" x="0px" y="0px"
	 width="512px" height="512px" viewBox="0 0 512 512" enable-background="new 0 0 512 512" xml:space="preserve">
<polygon opacity="0.5" fill="none" stroke="#A3A2A2" stroke-width="2" stroke-miterlimit="10" points="256,449.006 88.853,352.502 
	88.853,159.497 256,62.994 423.147,159.497 423.147,352.504 "/>
<polygon opacity="0.5" fill="#EEEDEE" stroke="#ADACAC" stroke-width="2" stroke-miterlimit="10" points="256,416.858 
	116.693,336.429 116.692,175.57 255.999,95.142 395.308,175.57 395.308,336.429 "/>
<polygon opacity="0.5" fill="#FFFFFF" stroke="#A3A2A2" stroke-width="2" stroke-miterlimit="10" points="256,381.926 
	146.945,318.963 146.945,193.037 256,130.074 365.055,193.037 365.055,318.965 "/>
<polygon opacity="0.5" fill="#EEEDEE" stroke="#ADACAC" stroke-width="2" stroke-miterlimit="10" points="256,348.084 
	176.252,302.043 176.252,209.958 255.999,163.916 335.748,209.958 335.748,302.043 "/>
<polygon opacity="0.5" fill="#FFFFFF" stroke="#A3A2A2" stroke-width="2" stroke-miterlimit="10" points="256,316.731 
	203.405,286.365 203.405,225.635 256,195.269 308.595,225.635 308.595,286.365 "/>
<line opacity="0.5" fill="none" stroke="#A3A2A2" stroke-width="2" stroke-miterlimit="10" x1="256" y1="64.994" x2="256" y2="449.006"/>
<line opacity="0.5" fill="none" stroke="#A3A2A2" stroke-width="2" stroke-miterlimit="10" x1="88.853" y1="159.497" x2="423.147" y2="352.504"/>
<line opacity="0.5" fill="none" stroke="#A3A2A2" stroke-width="2" stroke-miterlimit="10" x1="88.853" y1="352.502" x2="423.147" y2="159.497"/>
<polygon fill="none" stroke="#8A4F92" stroke-width="2" stroke-miterlimit="10" points="256,419.006 103.853,343.502 
	108.853,171.497 256,89.994 401.147,171.497 396.147,336.504 "/>
<circle fill="#6B438A" cx="256.106" cy="89.606" r="3.606"/>
<circle fill="#6B438A" cx="108.853" cy="171.497" r="3.606"/>
<circle fill="#6B438A" cx="103.853" cy="344.478" r="3.606"/>
<circle fill="#6B438A" cx="255.999" cy="419.006" r="3.606"/>
<circle fill="#6B438A" cx="401.147" cy="171.497" r="3.606"/>
<circle fill="#6B438A" cx="395.308" cy="336.429" r="3.606"/>
<polygon fill="none" stroke="#58BABE" stroke-width="2" stroke-miterlimit="10" points="256.5,435.506 107.353,343.002 
	147.353,191.997 256.499,110.494 388.647,177.997 416.647,349.004 "/>
<circle fill="#58BABE" cx="256.106" cy="111.606" r="3.606"/>
<circle fill="#58BABE" cx="388.647" cy="178.997" r="3.606"/>
<circle fill="#58BABE" cx="416.647" cy="349.004" r="3.606"/>
<circle fill="#58BABE" cx="256.5" cy="435.506" r="3.606"/>
<circle fill="#58BABE" cx="107.459" cy="342.478" r="3.606"/>
</svg>
