<?xml version="1.0" encoding="utf-8"?>
<!-- Generator: Adobe Illustrator 16.0.0, SVG Export Plug-In . SVG Version: 6.00 Build 0)  -->
<!DOCTYPE svg PUBLIC "-//W3C//DTD SVG 1.1//EN" "http://www.w3.org/Graphics/SVG/1.1/DTD/svg11.dtd">
<svg version="1.1" id="图层_1" xmlns="http://www.w3.org/2000/svg" xmlns:xlink="http://www.w3.org/1999/xlink" x="0px" y="0px"
	 width="512px" height="512px" viewBox="0 0 512 512" enable-background="new 0 0 512 512" xml:space="preserve">
<path fill="#70B0DE" d="M511.898,459.406c0,28.99-23.502,52.492-52.492,52.492H52.6c-28.992,0-52.498-23.502-52.498-52.492V52.6
	c0-28.992,23.506-52.498,52.498-52.498h406.806c28.99,0,52.492,23.506,52.492,52.498V459.406L511.898,459.406z"/>
<g>
	<g opacity="0.5">
		<path fill="#3A6F8F" d="M291.646,192.175c4.938,0,8.938,4,8.938,8.935c0,4.938-4,8.94-8.938,8.94c-4.938,0-8.941-4.003-8.941-8.94
			C282.705,196.175,286.708,192.175,291.646,192.175z"/>
		<g>
			<path fill="#3A6F8F" d="M259.35,390.042c-72.373,0-131.253-58.878-131.253-131.25c0-72.373,58.88-131.253,131.253-131.253
				c72.372,0,131.25,58.88,131.25,131.253C390.6,331.164,331.722,390.042,259.35,390.042z M259.35,135.352
				c-68.064,0-123.44,55.375-123.44,123.44c0,68.064,55.376,123.438,123.44,123.438s123.438-55.373,123.438-123.438
				C382.787,190.727,327.414,135.352,259.35,135.352z"/>
			<path fill="#3A6F8F" enable-background="new    " d="M259.345,353.517c-52.231,0-94.724-42.494-94.724-94.725
				s42.492-94.724,94.724-94.724c52.23,0,94.723,42.493,94.723,94.724S311.575,353.517,259.345,353.517z M259.345,168.532
				c-49.77,0-90.26,40.49-90.26,90.26s40.49,90.26,90.26,90.26s90.259-40.49,90.259-90.26S309.114,168.532,259.345,168.532z"/>
			<path fill="#3A6F8F" enable-background="new    " d="M259.35,327.092c-37.662,0-68.303-30.64-68.303-68.3
				c0-37.662,30.641-68.303,68.303-68.303c37.66,0,68.3,30.641,68.3,68.303C327.649,296.452,297.01,327.092,259.35,327.092z
				 M259.35,196.069c-34.585,0-62.722,28.138-62.722,62.723c0,34.584,28.137,62.72,62.722,62.72c34.584,0,62.72-28.136,62.72-62.72
				C322.069,224.207,293.934,196.069,259.35,196.069z"/>
			<path fill="#3A6F8F" enable-background="new    " d="M259.35,299.334c-22.354,0-40.542-18.187-40.542-40.542
				c0-22.354,18.188-40.542,40.542-40.542c22.355,0,40.542,18.188,40.542,40.542C299.892,281.147,281.705,299.334,259.35,299.334z
				 M259.35,223.831c-19.277,0-34.961,15.683-34.961,34.961c0,19.277,15.684,34.962,34.961,34.962
				c19.278,0,34.961-15.685,34.961-34.962C294.311,239.514,278.628,223.831,259.35,223.831z"/>
			<polygon fill="#3A6F8F" points="263.843,256.114 259.186,264.18 149.163,200.651 153.813,192.591 			"/>
			<circle fill="#3A6F8F" cx="259.345" cy="258.791" r="9.854"/>
			<path fill="#3A6F8F" d="M222.427,303.727c4.938,0,8.938,4,8.938,8.935c0,4.938-4,8.94-8.938,8.94
				c-4.937,0-8.939-4.003-8.939-8.94C213.487,307.727,217.49,303.727,222.427,303.727z"/>
			<path fill="#3A6F8F" d="M273.799,284.799c4.938,0,8.938,4,8.938,8.936c0,4.937-4,8.941-8.938,8.941s-8.942-4.005-8.942-8.941
				C264.856,288.799,268.861,284.799,273.799,284.799z"/>
			<path fill="#3A6F8F" d="M171.057,222.614c4.938,0,8.938,4,8.938,8.935c0,4.937-4,8.94-8.938,8.94s-8.94-4.004-8.94-8.94
				C162.116,226.614,166.119,222.614,171.057,222.614z"/>
			<circle fill="#3A6F8F" cx="222.427" cy="263.996" r="8.938"/>
			<path fill="#3A6F8F" d="M284.613,222.614c4.937,0,8.937,4,8.937,8.935c0,4.937-4,8.94-8.937,8.94c-4.938,0-8.94-4.004-8.94-8.94
				C275.673,226.614,279.676,222.614,284.613,222.614z"/>
			<circle fill="#3A6F8F" cx="230.538" cy="199.578" r="8.938"/>
			<path fill="#3A6F8F" d="M322.464,268.578c4.938,0,8.938,4,8.938,8.934c0,4.938-4,8.941-8.938,8.941s-8.939-4.004-8.939-8.941
				C313.524,272.578,317.526,268.578,322.464,268.578z"/>
			<circle fill="#3A6F8F" cx="298.13" cy="342.403" r="8.938"/>
		</g>
	</g>
	<g>
		<path fill="#FFFFFF" d="M284.949,186.595c4.938,0,8.938,4,8.938,8.935c0,4.938-4,8.939-8.938,8.939
			c-4.938,0-8.94-4.002-8.94-8.939C276.009,190.595,280.011,186.595,284.949,186.595z"/>
		<g>
			<path fill="#FFFFFF" d="M252.653,384.462c-72.373,0-131.253-58.878-131.253-131.25c0-72.374,58.88-131.254,131.253-131.254
				c72.372,0,131.25,58.88,131.25,131.254C383.903,325.584,325.025,384.462,252.653,384.462z M252.653,129.771
				c-68.065,0-123.44,55.376-123.44,123.441c0,68.064,55.375,123.438,123.44,123.438c68.064,0,123.438-55.373,123.438-123.438
				C376.091,185.146,320.718,129.771,252.653,129.771z"/>
			<path fill="#FFFFFF" enable-background="new    " d="M252.648,347.936c-52.231,0-94.725-42.493-94.725-94.724
				c0-52.231,42.493-94.725,94.725-94.725c52.23,0,94.723,42.493,94.723,94.725C347.371,305.442,304.879,347.936,252.648,347.936z
				 M252.648,162.952c-49.77,0-90.26,40.49-90.26,90.26c0,49.769,40.49,90.26,90.26,90.26s90.258-40.491,90.258-90.26
				C342.906,203.442,302.418,162.952,252.648,162.952z"/>
			<path fill="#FFFFFF" enable-background="new    " d="M252.653,321.512c-37.662,0-68.303-30.64-68.303-68.3
				c0-37.663,30.641-68.303,68.303-68.303c37.66,0,68.3,30.64,68.3,68.303C320.953,290.872,290.313,321.512,252.653,321.512z
				 M252.653,190.489c-34.585,0-62.723,28.137-62.723,62.723c0,34.584,28.138,62.72,62.723,62.72c34.584,0,62.72-28.136,62.72-62.72
				C315.373,218.626,287.237,190.489,252.653,190.489z"/>
			<path fill="#FFFFFF" enable-background="new    " d="M252.653,293.754c-22.354,0-40.542-18.187-40.542-40.542
				s18.188-40.542,40.542-40.542c22.355,0,40.542,18.187,40.542,40.542S275.009,293.754,252.653,293.754z M252.653,218.25
				c-19.277,0-34.961,15.684-34.961,34.962c0,19.277,15.684,34.961,34.961,34.961c19.278,0,34.961-15.684,34.961-34.961
				C287.614,233.934,271.932,218.25,252.653,218.25z"/>
			<polygon fill="#FFFFFF" points="257.146,250.534 252.489,258.599 142.466,195.07 147.116,187.01 			"/>
			<circle fill="#FFFFFF" cx="252.648" cy="253.21" r="9.855"/>
			<circle fill="#FFFFFF" cx="215.73" cy="307.083" r="8.938"/>
			<path fill="#FFFFFF" d="M267.102,279.218c4.938,0,8.938,4.001,8.938,8.936c0,4.938-4,8.942-8.938,8.942
				c-4.937,0-8.941-4.005-8.941-8.942C258.16,283.219,262.165,279.218,267.102,279.218z"/>
			<path fill="#FFFFFF" d="M164.359,217.034c4.938,0,8.938,4,8.938,8.934c0,4.938-4,8.94-8.938,8.94
				c-4.938,0-8.939-4.003-8.939-8.94C155.42,221.034,159.422,217.034,164.359,217.034z"/>
			<circle fill="#FFFFFF" cx="215.73" cy="258.416" r="8.938"/>
			<path fill="#FFFFFF" d="M277.916,217.034c4.938,0,8.938,4,8.938,8.934c0,4.938-4,8.94-8.938,8.94s-8.939-4.003-8.939-8.94
				C268.977,221.034,272.979,217.034,277.916,217.034z"/>
			<path fill="#FFFFFF" d="M223.842,185.061c4.938,0,8.938,4,8.938,8.935c0,4.938-4,8.94-8.938,8.94s-8.94-4.003-8.94-8.94
				C214.901,189.061,218.904,185.061,223.842,185.061z"/>
			<path fill="#FFFFFF" d="M315.768,262.998c4.938,0,8.938,4,8.938,8.933c0,4.938-4,8.942-8.938,8.942s-8.939-4.005-8.939-8.942
				C306.828,266.998,310.83,262.998,315.768,262.998z"/>
			<circle fill="#FFFFFF" cx="291.434" cy="336.823" r="8.938"/>
		</g>
	</g>
</g>
</svg>
