<?xml version="1.0" encoding="utf-8"?>
<!-- Generator: Adobe Illustrator 16.0.0, SVG Export Plug-In . SVG Version: 6.00 Build 0)  -->
<!DOCTYPE svg PUBLIC "-//W3C//DTD SVG 1.1//EN" "http://www.w3.org/Graphics/SVG/1.1/DTD/svg11.dtd">
<svg version="1.1" id="图层_1" xmlns="http://www.w3.org/2000/svg" xmlns:xlink="http://www.w3.org/1999/xlink" x="0px" y="0px"
	 width="512px" height="512px" viewBox="0 0 512 512" enable-background="new 0 0 512 512" xml:space="preserve">
<path fill="#70B0DE" d="M511.898,459.406c0,28.99-23.502,52.492-52.492,52.492H52.6c-28.992,0-52.498-23.502-52.498-52.492V52.6
	c0-28.992,23.506-52.498,52.498-52.498h406.806c28.99,0,52.492,23.506,52.492,52.498V459.406L511.898,459.406z"/>
<g>
	<g opacity="0.5">
		<polygon fill-rule="evenodd" clip-rule="evenodd" fill="#3A6F8F" points="112.021,169.979 112.041,169.979 113.78,166.95 
			115.517,169.979 115.536,169.979 115.536,170.008 118.693,175.514 115.536,175.514 115.536,348.768 112.021,348.768 
			112.021,175.514 108.865,175.514 112.021,170.008 		"/>
		<path fill-rule="evenodd" clip-rule="evenodd" fill="#3A6F8F" d="M144.598,313.143c7.893,0,14.322-5.659,14.322-12.585
			c0-6.933-6.429-12.585-14.322-12.585c-7.883,0-14.318,5.652-14.318,12.585C130.279,307.483,136.715,313.143,144.598,313.143z"/>
		<path fill-rule="evenodd" clip-rule="evenodd" fill="#3A6F8F" d="M225.923,300.498c8.655,0,15.725-6.208,15.725-13.824
			c0-7.597-7.07-13.808-15.725-13.808c-8.662,0-15.725,6.211-15.725,13.808C210.198,294.29,217.262,300.498,225.923,300.498z"/>
		<path fill-rule="evenodd" clip-rule="evenodd" fill="#3A6F8F" d="M297.233,241.942c6.725,0,12.229-4.838,12.229-10.75
			c0-5.917-5.504-10.736-12.229-10.736c-6.728,0-12.215,4.82-12.215,10.736C285.019,237.104,290.506,241.942,297.233,241.942z"/>
		<path fill-rule="evenodd" clip-rule="evenodd" fill="#3A6F8F" d="M366.834,317.046c5.732,0,10.413-4.119,10.413-9.151
			c0-5.038-4.681-9.146-10.413-9.146c-5.726,0-10.401,4.108-10.401,9.146C356.433,312.927,361.108,317.046,366.834,317.046z"/>
		<path fill-rule="evenodd" clip-rule="evenodd" fill="#3A6F8F" d="M343.573,276.425c6.409,0,11.635-4.597,11.635-10.231
			c0-5.624-5.226-10.219-11.635-10.219c-6.407,0-11.644,4.595-11.644,10.219C331.93,271.828,337.166,276.425,343.573,276.425z"/>
		<path fill-rule="evenodd" clip-rule="evenodd" fill="#3A6F8F" d="M338.652,223.646c7.249,0,13.159-5.199,13.159-11.579
			c0-6.376-5.91-11.575-13.159-11.575c-7.246,0-13.171,5.199-13.171,11.575C325.481,218.446,331.406,223.646,338.652,223.646z"/>
		<path fill-rule="evenodd" clip-rule="evenodd" fill="#3A6F8F" d="M260.775,268.902c7.519,0,13.659-5.393,13.659-12.015
			c0-6.614-6.141-11.989-13.659-11.989c-7.526,0-13.654,5.375-13.654,11.989C247.121,263.51,253.249,268.902,260.775,268.902z"/>
		<path fill-rule="evenodd" clip-rule="evenodd" fill="#3A6F8F" d="M308.395,303.094c6.507,0,11.822-4.669,11.822-10.39
			c0-5.728-5.315-10.398-11.822-10.398c-6.52,0-11.828,4.671-11.828,10.398C296.566,298.425,301.875,303.094,308.395,303.094z"/>
		<path fill-rule="evenodd" clip-rule="evenodd" fill="#3A6F8F" d="M219.998,240.395c8.948,0,16.247-6.407,16.247-14.276
			c0-7.87-7.299-14.288-16.247-14.288c-8.951,0-16.245,6.417-16.245,14.288C203.753,233.988,211.047,240.395,219.998,240.395z"/>
		<path fill-rule="evenodd" clip-rule="evenodd" fill="#3A6F8F" d="M164.798,250.562c8.368,0,15.179-5.983,15.179-13.351
			c0-7.345-6.811-13.336-15.179-13.336c-8.358,0-15.179,5.991-15.179,13.336C149.619,244.578,156.439,250.562,164.798,250.562z"/>
		<polygon fill-rule="evenodd" clip-rule="evenodd" fill="#3A6F8F" points="408.316,346.88 408.316,346.899 411.135,348.769 
			408.316,350.635 408.316,350.656 408.29,350.656 403.167,354.05 403.167,350.656 111.95,350.656 111.95,346.88 403.167,346.88 
			403.167,343.486 408.29,346.88 		"/>
	</g>
	<g>
		<polygon fill-rule="evenodd" clip-rule="evenodd" fill="#FFFFFF" points="104.021,160.979 104.041,160.979 105.78,157.95 
			107.517,160.979 107.536,160.979 107.536,161.008 110.693,166.514 107.536,166.514 107.536,339.768 104.021,339.768 
			104.021,166.514 100.865,166.514 104.021,161.008 		"/>
		<path fill-rule="evenodd" clip-rule="evenodd" fill="#FFFFFF" d="M136.598,304.143c7.893,0,14.322-5.659,14.322-12.585
			c0-6.933-6.429-12.585-14.322-12.585c-7.883,0-14.318,5.652-14.318,12.585C122.279,298.483,128.715,304.143,136.598,304.143z"/>
		<path fill-rule="evenodd" clip-rule="evenodd" fill="#FFFFFF" d="M217.923,291.498c8.655,0,15.725-6.208,15.725-13.824
			c0-7.597-7.07-13.808-15.725-13.808c-8.662,0-15.725,6.211-15.725,13.808C202.198,285.29,209.262,291.498,217.923,291.498z"/>
		<path fill-rule="evenodd" clip-rule="evenodd" fill="#FFFFFF" d="M289.233,232.942c6.725,0,12.229-4.838,12.229-10.75
			c0-5.917-5.504-10.736-12.229-10.736c-6.728,0-12.215,4.82-12.215,10.736C277.019,228.104,282.506,232.942,289.233,232.942z"/>
		<path fill-rule="evenodd" clip-rule="evenodd" fill="#FFFFFF" d="M358.834,308.046c5.732,0,10.413-4.119,10.413-9.151
			c0-5.038-4.681-9.146-10.413-9.146c-5.726,0-10.401,4.108-10.401,9.146C348.433,303.927,353.108,308.046,358.834,308.046z"/>
		<path fill-rule="evenodd" clip-rule="evenodd" fill="#FFFFFF" d="M335.573,267.425c6.409,0,11.635-4.597,11.635-10.231
			c0-5.624-5.226-10.219-11.635-10.219c-6.407,0-11.644,4.595-11.644,10.219C323.93,262.828,329.166,267.425,335.573,267.425z"/>
		<path fill-rule="evenodd" clip-rule="evenodd" fill="#FFFFFF" d="M330.652,214.646c7.249,0,13.159-5.199,13.159-11.579
			c0-6.376-5.91-11.575-13.159-11.575c-7.246,0-13.171,5.199-13.171,11.575C317.481,209.446,323.406,214.646,330.652,214.646z"/>
		<path fill-rule="evenodd" clip-rule="evenodd" fill="#FFFFFF" d="M252.776,259.902c7.518,0,13.659-5.392,13.659-12.015
			c0-6.614-6.141-11.989-13.659-11.989c-7.527,0-13.655,5.375-13.655,11.989C239.121,254.51,245.249,259.902,252.776,259.902z"/>
		<path fill-rule="evenodd" clip-rule="evenodd" fill="#FFFFFF" d="M300.395,294.094c6.507,0,11.822-4.669,11.822-10.39
			c0-5.728-5.315-10.398-11.822-10.398c-6.52,0-11.828,4.671-11.828,10.398C288.566,289.425,293.875,294.094,300.395,294.094z"/>
		<path fill-rule="evenodd" clip-rule="evenodd" fill="#FFFFFF" d="M211.998,231.395c8.948,0,16.247-6.407,16.247-14.276
			c0-7.87-7.299-14.288-16.247-14.288c-8.951,0-16.245,6.417-16.245,14.288C195.753,224.988,203.047,231.395,211.998,231.395z"/>
		<path fill-rule="evenodd" clip-rule="evenodd" fill="#FFFFFF" d="M156.798,241.562c8.368,0,15.179-5.983,15.179-13.351
			c0-7.345-6.811-13.336-15.179-13.336c-8.358,0-15.179,5.991-15.179,13.336C141.619,235.578,148.439,241.562,156.798,241.562z"/>
		<polygon fill-rule="evenodd" clip-rule="evenodd" fill="#FFFFFF" points="400.316,337.88 400.316,337.899 403.135,339.769 
			400.316,341.635 400.316,341.656 400.29,341.656 395.167,345.05 395.167,341.656 103.95,341.656 103.95,337.88 395.167,337.88 
			395.167,334.486 400.29,337.88 		"/>
	</g>
</g>
</svg>
