<?xml version="1.0" encoding="utf-8"?>
<!-- Generator: Adobe Illustrator 16.0.0, SVG Export Plug-In . SVG Version: 6.00 Build 0)  -->
<!DOCTYPE svg PUBLIC "-//W3C//DTD SVG 1.1//EN" "http://www.w3.org/Graphics/SVG/1.1/DTD/svg11.dtd">
<svg version="1.1" id="图层_1" xmlns="http://www.w3.org/2000/svg" xmlns:xlink="http://www.w3.org/1999/xlink" x="0px" y="0px"
	 width="512px" height="512px" viewBox="0 0 512 512" enable-background="new 0 0 512 512" xml:space="preserve">
<g>
	<rect x="12.792" y="136.039" fill="#C1C1C1" width="1.328" height="239.258"/>
</g>
<g>
	<rect x="13.455" y="374.635" fill="#B7B7B7" width="484.896" height="1.326"/>
</g>
<g>
	<rect x="61.01" y="360.195" fill="#E2DBD7" width="1.327" height="14.106"/>
</g>
<g>
	<rect x="103.145" y="360.195" fill="#E2DBD7" width="1.324" height="14.106"/>
</g>
<g>
	<rect x="146.615" y="360.195" fill="#E2DBD7" width="1.33" height="14.106"/>
</g>
<g>
	<rect x="189.419" y="360.195" fill="#E2DBD7" width="1.324" height="14.106"/>
</g>
<g>
	<rect x="231.55" y="360.195" fill="#E2DBD7" width="1.324" height="14.106"/>
</g>
<g>
	<rect x="275.023" y="360.195" fill="#E2DBD7" width="1.326" height="14.106"/>
</g>
<g>
	<rect x="317.826" y="360.195" fill="#E2DBD7" width="1.325" height="14.106"/>
</g>
<g>
	<rect x="359.957" y="360.195" fill="#E2DBD7" width="1.327" height="14.106"/>
</g>
<g>
	<rect x="403.434" y="360.195" fill="#E2DBD7" width="1.326" height="14.106"/>
</g>
<g>
	<rect x="446.231" y="360.195" fill="#E2DBD7" width="1.326" height="14.106"/>
</g>
<g>
	<rect x="488.363" y="360.195" fill="#E2DBD7" width="1.327" height="14.106"/>
</g>
<circle fill="#BB7FC9" cx="104.469" cy="313.5" r="10"/>
<circle fill="#BB7FC9" cx="337.826" cy="234.5" r="10"/>
<circle fill="#BB7FC9" cx="166.615" cy="230.5" r="10"/>
<circle fill="#BB7FC9" cx="71.01" cy="307.5" r="10"/>
<circle fill="#BB7FC9" cx="32.5" cy="345.5" r="10"/>
<circle fill="#BB7FC9" cx="128.5" cy="256" r="10"/>
<circle fill="#BB7FC9" cx="232.874" cy="259.5" r="10"/>
<circle fill="#BB7FC9" cx="200.743" cy="198.5" r="10"/>
<circle fill="#BB7FC9" cx="156.615" cy="287.5" r="10"/>
<circle fill="#BB7FC9" cx="379.5" cy="178.5" r="10"/>
<circle fill="#BB7FC9" cx="266" cy="214.5" r="10"/>
<circle fill="#BB7FC9" cx="298.5" cy="146.039" r="10"/>
<circle fill="#BB7FC9" cx="437.558" cy="198.5" r="10"/>
</svg>
